#!OML:ASF Y:\EmotionMaleHayes\Project 1\Capture day 1\Session 1\Male1.ASF
:FULLY-SPECIFIED
:DEGREES
256
root -30.6161 16.9359 2.348 -88.6216 93.7312 -81.0133
lowerback 7.38906 0.5865 2.45522
upperback 3.62351 1.0944 2.51277
thorax -0.406501 0.610188 1.12513
lowerneck -21.7264 2.25312 6.85391
upperneck 29.959 2.17641 -3.00471
head 13.9651 1.4907 -1.93806
rclavicle -1.48592e-014 -4.45278e-014
rhumerus -26.0262 3.0362 -80.4555
rradius 28.8807
rwrist 8.34117
rhand -9.43229 -34.299
rfingers 7.12502
rthumb 16.5303 -63.6149
lclavicle -1.48592e-014 -4.45278e-014
lhumerus -31.8745 -6.08409 82.2136
lradius 34.7248
lwrist -1.75536
lhand -15.6969 -24.1351
lfingers 7.12502
lthumb 10.4926 5.58302
rfemur 13.6319 -7.35692 11.9754
rtibia 4.81778
rfoot -18.1153 -3.22648
rtoes 1.56245
lfemur 6.48819 8.89084 -9.362
ltibia 17.6929
lfoot -15.3728 9.25081
ltoes -10.6433
257
root -30.6178 16.9384 2.32044 -87.2213 93.7968 -79.491
lowerback 7.64977 0.576645 2.504
upperback 3.61603 1.09502 2.41937
thorax -0.555591 0.610766 0.997837
lowerneck -21.8367 2.33152 7.00142
upperneck 29.942 2.1952 -2.92943
head 13.9852 1.52399 -1.92903
rclavicle 2.18663e-015 2.54444e-014
rhumerus -25.9193 3.27691 -80.7493
rradius 29.374
rwrist 7.90301
rhand -9.72044 -33.7636
rfingers 7.12502
rthumb 16.2528 -63.1024
lclavicle 2.18663e-015 2.54444e-014
lhumerus -32.2529 -6.55221 82.2163
lradius 35.1199
lwrist -1.49596
lhand -16.5843 -24.0884
lfingers 7.12502
lthumb 9.63646 5.67114
rfemur 13.7483 -7.21008 11.8198
rtibia 4.86806
rfoot -18.1952 -3.41982
rtoes 1.46294
lfemur 6.54444 9.07295 -9.42722
ltibia 17.8001
lfoot -15.407 9.41178
ltoes -10.8531
258
root -30.6164 16.9371 2.28935 -85.7007 93.7716 -78.0216
lowerback 7.61977 0.54526 2.57083
upperback 3.60597 1.05745 2.43787
thorax -0.548483 0.592698 0.982751
lowerneck -21.8226 2.37506 7.02901
upperneck 29.8656 2.25394 -2.95724
head 13.9537 1.54579 -1.93359
rclavicle 0 1.11319e-014
rhumerus -25.7877 3.79622 -80.9706
rradius 29.9605
rwrist 7.37035
rhand -10.2159 -33.7111
rfingers 7.12502
rthumb 15.7758 -63.0882
lclavicle 0 1.11319e-014
lhumerus -32.5428 -6.74211 82.2908
lradius 35.3643
lwrist -1.26083
lhand -17.6083 -23.9427
lfingers 7.12502
lthumb 8.64837 5.86018
rfemur 13.7308 -7.10148 11.7975
rtibia 4.81144
rfoot -18.1543 -3.60954
rtoes 1.25608
lfemur 6.45264 9.2864 -9.40037
ltibia 17.9087
lfoot -15.6538 9.47285
ltoes -9.83097
259
root -30.6119 16.9343 2.25618 -84.1799 93.8358 -76.5493
lowerback 7.60276 0.515296 2.46681
upperback 3.55529 1.01213 2.51733
thorax -0.594742 0.567645 1.12625
lowerneck -21.7342 2.38936 6.98167
upperneck 29.7792 2.32202 -3.03132
head 13.9015 1.55754 -1.94237
rclavicle 5.56597e-015 -7.95139e-015
rhumerus -25.7622 4.55271 -81.1311
rradius 30.5878
rwrist 6.77662
rhand -10.6744 -33.709
rfingers 7.12502
rthumb 15.3341 -63.1205
lclavicle 5.56597e-015 -7.95139e-015
lhumerus -32.8827 -6.67038 82.4722
lradius 35.4999
lwrist -1.15819
lhand -19.6881 -24.1673
lfingers 7.12502
lthumb 6.6409 5.70855
rfemur 13.7814 -7.09366 11.6199
rtibia 4.6719
rfoot -18.0561 -3.62251
rtoes 1.18528
lfemur 6.35723 9.45587 -9.53013
ltibia 18.0438
lfoot -15.9692 9.54737
ltoes -8.40262
260
root -30.6073 16.9347 2.22008 -82.2753 93.7652 -74.5706
lowerback 7.74476 0.536687 2.63768
upperback 3.51767 1.06181 2.55532
thorax -0.709596 0.593498 1.06358
lowerneck -21.8023 2.34815 7.00484
upperneck 29.8738 2.25942 -3.04973
head 13.9534 1.53354 -1.96584
rclavicle 7.10655e-015 2.06736e-014
rhumerus -25.7903 4.95601 -81.2872
rradius 31.1693
rwrist 6.21276
rhand -11.0363 -33.8392
rfingers 7.12502
rthumb 14.9855 -63.277
lclavicle 7.10655e-015 2.06736e-014
lhumerus -33.1936 -6.89544 82.7018
lradius 35.6286
lwrist -0.906377
lhand -19.2335 -24.131
lfingers 7.12502
lthumb 7.07975 5.73062
rfemur 13.8905 -7.15128 11.5516
rtibia 4.68007
rfoot -18.0731 -3.55467
rtoes 1.69987
lfemur 6.38872 9.5498 -9.50534
ltibia 18.1391
lfoot -16.2984 9.67549
ltoes -7.19832
261
root -30.6039 16.9389 2.17996 -81.7247 93.7892 -73.9658
lowerback 7.73449 0.585011 2.80535
upperback 3.58438 1.13667 2.52524
thorax -0.630991 0.634685 0.933412
lowerneck -21.9135 2.31735 6.93783
upperneck 29.8789 2.19931 -2.96338
head 13.9736 1.51073 -1.93039
rclavicle -1.39149e-015 -1.90833e-014
rhumerus -25.5504 5.01273 -81.3328
rradius 31.4688
rwrist 5.943
rhand -11.0077 -33.935
rfingers 7.12502
rthumb 15.0131 -63.3707
lclavicle -1.39149e-015 -1.90833e-014
lhumerus -33.4356 -7.19096 82.9032
lradius 35.8798
lwrist -0.470569
lhand -19.2871 -23.7866
lfingers 7.12502
lthumb 7.028 6.07677
rfemur 13.8702 -7.03256 11.3892
rtibia 4.82625
rfoot -18.1809 -3.52986
rtoes 2.50622
lfemur 6.42304 9.86447 -9.56056
ltibia 18.2505
lfoot -16.4886 9.844
ltoes -7.16527
262
root -30.6035 16.9427 2.14044 -81.6669 93.9514 -73.9495
lowerback 7.76773 0.601167 2.72947
upperback 3.5537 1.15394 2.51471
thorax -0.682343 0.641437 0.962839
lowerneck -21.8076 2.32917 6.83849
upperneck 29.7737 2.24179 -2.9112
head 13.9057 1.52311 -1.88377
rclavicle 2.5345e-015 -9.54166e-015
rhumerus -25.3933 5.24628 -81.3561
rradius 31.7647
rwrist 5.65834
rhand -10.8328 -33.7901
rfingers 7.12502
rthumb 15.1816 -63.2132
lclavicle 2.5345e-015 -9.54166e-015
lhumerus -33.8565 -7.16097 83.082
lradius 36.1227
lwrist -0.196742
lhand -19.3888 -23.685
lfingers 7.12502
lthumb 6.92984 6.18155
rfemur 13.7668 -6.90749 11.0835
rtibia 4.91753
rfoot -18.2569 -3.5308
rtoes 2.59474
lfemur 6.32261 10.3577 -9.77674
ltibia 18.4673
lfoot -16.5837 9.99757
ltoes -8.7226
263
root -30.603 16.9443 2.10362 -80.2116 94.0486 -72.5497
lowerback 7.78902 0.603621 2.71639
upperback 3.50855 1.1562 2.47688
thorax -0.740217 0.641085 0.930179
lowerneck -21.7082 2.3237 6.82511
upperneck 29.6539 2.19143 -2.76297
head 13.8283 1.51848 -1.83011
rclavicle -4.96962e-015 -4.77083e-015
rhumerus -25.3723 5.62035 -81.5695
rradius 32.4813
rwrist 4.99931
rhand -11.099 -33.4277
rfingers 7.12502
rthumb 14.9251 -62.87
lclavicle -4.96962e-015 -4.77083e-015
lhumerus -34.2029 -7.22467 83.222
lradius 36.2201
lwrist -0.0718287
lhand -19.523 -23.7205
lfingers 7.12502
lthumb 6.80033 6.15032
rfemur 13.7375 -7.01515 10.801
rtibia 4.90091
rfoot -18.2428 -3.51674
rtoes 1.77571
lfemur 6.1683 10.6219 -9.96016
ltibia 18.6779
lfoot -16.8777 10.1817
ltoes -8.777
264
root -30.6017 16.9441 2.06862 -79.1453 93.9674 -71.4903
lowerback 7.84086 0.637473 2.80417
upperback 3.47686 1.21232 2.52628
thorax -0.800536 0.669201 0.926246
lowerneck -21.7199 2.28576 6.7572
upperneck 29.6491 2.11181 -2.61826
head 13.8215 1.49688 -1.77468
rclavicle -1.73937e-015 1.11319e-014
rhumerus -25.3324 5.88003 -81.6992
rradius 33.1569
rwrist 4.48905
rhand -11.3686 -32.8784
rfingers 7.12502
rthumb 14.6654 -62.3398
lclavicle -1.73937e-015 1.11319e-014
lhumerus -34.4876 -7.32726 83.4846
lradius 36.2402
lwrist 0.0732176
lhand -19.7503 -23.4579
lfingers 7.12502
lthumb 6.58086 6.41984
rfemur 13.7841 -6.91815 10.8135
rtibia 4.80119
rfoot -18.2637 -3.72697
rtoes 0.55252
lfemur 6.1138 10.7563 -9.94715
ltibia 18.7718
lfoot -17.1404 10.5955
ltoes -7.81517
265
root -30.6039 16.9435 2.03168 -80.4153 93.598 -72.8485
lowerback 7.83833 0.697026 3.11994
upperback 3.45783 1.32101 2.69328
thorax -0.814783 0.726611 0.912593
lowerneck -21.7611 2.29875 6.71487
upperneck 29.6175 2.16847 -2.70137
head 13.8199 1.50279 -1.79034
rclavicle 1.44119e-015 5.725e-014
rhumerus -25.2191 6.29588 -81.7792
rradius 33.7188
rwrist 4.16365
rhand -11.3388 -32.9098
rfingers 7.12502
rthumb 14.6941 -62.3691
lclavicle 1.44119e-015 5.725e-014
lhumerus -34.7513 -7.21595 83.7766
lradius 36.2822
lwrist 0.342253
lhand -19.7285 -23.1626
lfingers 7.12502
lthumb 6.6019 6.71448
rfemur 13.5614 -6.56649 11.2454
rtibia 4.88088
rfoot -18.3398 -3.91503
rtoes 0.046334
lfemur 6.045 11.1136 -9.61643
ltibia 18.8323
lfoot -17.4157 11.1798
ltoes -8.65595
